# Blender 4.4.1
# www.blender.org
mtllib cork.mtl
o Retopo_Circle
v -0.199802 -0.036288 -0.199530
v -0.199999 -0.036289 0.199255
v 0.198545 -0.036296 0.199482
v 0.198547 -0.036297 -0.199409
v -0.191969 2.349378 -0.191336
v 0.192798 2.349371 -0.191842
v 0.192516 2.349377 0.191184
v -0.192375 2.349374 0.191758
v -0.363115 -0.033861 -0.365536
v -0.516287 -0.033846 -0.002183
v -0.219389 -0.036745 -0.000079
v -0.000926 -0.037531 -0.000019
v -0.000626 -0.036752 -0.218174
v -0.002676 -0.033837 -0.516984
v -0.365341 -0.033866 0.362713
v -0.001071 -0.033851 0.515761
v -0.000412 -0.036753 0.218087
v 0.362649 -0.033868 0.365196
v 0.514459 -0.033868 0.002756
v 0.216220 -0.036765 0.000223
v 0.362561 -0.033871 -0.364857
v 0.000764 2.349994 -0.187025
v 0.000504 2.350286 0.000365
v -0.187107 2.349994 0.001513
v -0.593521 2.345266 0.002422
v -0.420669 2.345294 -0.416159
v 0.002065 2.345294 -0.591632
v 0.187177 2.349994 -0.001968
v 0.425353 2.345237 -0.416914
v 0.592440 2.345283 -0.002737
v 0.001062 2.349994 0.187069
v 0.422975 2.345273 0.415825
v 0.004541 2.345278 0.592824
v -0.423556 2.345261 0.416455
v 0.004965 2.276172 1.096146
v -0.778711 2.276172 0.771408
v -1.096273 2.276171 0.005953
v -0.766641 1.894127 0.789854
v -1.100467 1.894082 0.017572
v -0.790580 1.894070 -0.765711
v -0.778917 2.276171 -0.771361
v -0.016516 1.894112 -1.100595
v 0.004710 2.276171 -1.096287
v 0.766588 1.894132 -0.789895
v 0.779201 2.276171 -0.771184
v 1.100483 1.894064 -0.017423
v 1.096145 2.276172 -0.004876
v 0.790130 1.894070 0.766284
v 0.771392 2.276163 0.782129
v 0.017269 1.894062 1.100502
v 0.770557 1.516330 0.750376
v 0.014372 1.516330 1.075452
v -0.750409 1.516334 0.770531
v 0.013578 1.140119 1.050709
v -0.733350 1.140123 0.752575
v -1.050691 1.140123 0.013774
v -1.075434 1.516335 0.014570
v -0.752724 1.140120 -0.733169
v -0.770805 1.516332 -0.750075
v -0.013654 1.140118 -1.050702
v -0.014361 1.516329 -1.075453
v 0.733232 1.140122 -0.752672
v 0.750232 1.516334 -0.770676
v 1.050697 1.140116 -0.013698
v 1.075437 1.516327 -0.014531
v 0.752566 1.140118 0.733361
v 1.026226 0.765386 -0.013409
v 0.735118 0.765385 0.716187
v 0.013432 0.765387 1.026224
v 0.718363 0.392086 0.698396
v 0.014408 0.392081 1.001768
v -0.698343 0.392084 0.718405
v -0.716184 0.765388 0.735121
v -1.001764 0.392083 0.014451
v -1.026210 0.765390 0.013576
v -0.718373 0.392068 -0.698381
v -0.735208 0.765385 -0.716078
v -0.012482 0.392019 -1.001971
v -0.013274 0.765385 -1.026239
v 0.699727 0.392027 -0.717284
v 0.716245 0.765387 -0.735071
v 1.001818 0.392092 -0.013952
v 0.672768 0.028200 -0.677116
v 0.954460 0.028200 0.003479
v 0.672444 0.028200 0.677491
v 0.005234 0.028204 0.956048
v -0.677004 0.028200 0.672752
v -0.956082 0.028204 0.005047
v -0.672717 0.028200 -0.677057
v -0.003691 0.028200 -0.954521
vn 0.0101 0.9999 0.0039
vn 0.0031 1.0000 0.0031
vn 0.0039 0.9999 0.0101
vn 0.0039 0.9999 -0.0101
vn 0.0031 1.0000 -0.0031
vn 0.0102 0.9999 -0.0038
vn -0.0101 0.9999 -0.0039
vn -0.0031 1.0000 -0.0031
vn -0.0038 0.9999 -0.0101
vn -0.0102 0.9999 0.0039
vn -0.0031 1.0000 0.0031
vn -0.0038 0.9999 0.0102
vn 0.0024 -1.0000 0.0024
vn 0.0123 -0.9999 0.0044
vn 0.0044 -0.9999 0.0124
vn -0.0024 -1.0000 0.0024
vn -0.0123 -0.9999 0.0044
vn -0.0045 -0.9999 0.0124
vn -0.0024 -1.0000 -0.0024
vn -0.0123 -0.9999 -0.0043
vn -0.0045 -0.9999 -0.0123
vn 0.0024 -1.0000 -0.0024
vn 0.0044 -0.9999 -0.0124
vn 0.0123 -0.9999 -0.0044
vn 0.0563 -0.9891 -0.1360
vn 0.1359 -0.9891 -0.0562
vn 0.9208 -0.0059 -0.3900
vn 0.9278 -0.0108 0.3729
vn 0.1360 -0.9891 0.0557
vn 0.3900 -0.0152 0.9207
vn 0.0563 -0.9891 0.1357
vn -0.3779 -0.0112 0.9258
vn -0.0566 -0.9891 0.1356
vn -0.9210 -0.0060 0.3895
vn -0.1362 -0.9891 0.0559
vn -0.9270 -0.0141 -0.3748
vn -0.1365 -0.9891 -0.0560
vn -0.3881 -0.0019 -0.9216
vn -0.0559 -0.9893 -0.1348
vn -0.3952 0.0614 -0.9165
vn 0.3687 0.0610 -0.9276
vn 0.3756 -0.0157 -0.9267
vn 0.3698 0.0606 -0.9271
vn 0.9171 0.0608 -0.3941
vn 0.9165 0.0617 -0.3951
vn 0.9272 0.0607 0.3696
vn 0.9277 0.0612 0.3683
vn 0.3942 0.0606 0.9170
vn 0.3954 0.0609 0.9165
vn -0.3698 0.0607 0.9271
vn -0.3688 0.0614 0.9275
vn -0.9170 0.0607 0.3942
vn -0.9165 0.0618 0.3952
vn -0.9271 0.0606 -0.3698
vn -0.9276 0.0611 -0.3685
vn -0.9271 0.0602 -0.3699
vn -0.3939 0.0602 -0.9172
vn -0.3940 0.0607 -0.9171
vn -0.3945 0.0602 -0.9169
vn 0.3693 0.0604 -0.9273
vn 0.3700 0.0603 -0.9271
vn 0.9169 0.0603 -0.3946
vn 0.9171 0.0602 -0.3940
vn 0.9274 0.0605 0.3693
vn 0.9271 0.0603 0.3698
vn 0.3942 0.0608 0.9170
vn 0.3940 0.0603 0.9171
vn -0.3703 0.0600 0.9270
vn -0.3700 0.0602 0.9271
vn -0.9172 0.0594 0.3940
vn -0.9171 0.0601 0.3940
vn -0.9143 0.1239 0.3857
vn -0.9193 0.1196 -0.3750
vn -0.9273 0.0602 -0.3695
vn -0.1393 0.9885 -0.0583
vn -0.0578 0.9886 -0.1388
vn -0.3882 0.1131 -0.9146
vn 0.0583 0.9885 -0.1398
vn 0.3735 0.1217 -0.9196
vn 0.1389 0.9886 -0.0578
vn 0.9145 0.1136 -0.3884
vn 0.1400 0.9884 0.0584
vn 0.9196 0.1215 0.3736
vn 0.0582 0.9885 0.1396
vn 0.3867 0.1154 0.9150
vn -0.0576 0.9885 0.1399
vn -0.3725 0.1201 0.9202
vn -0.1396 0.9885 0.0577
s 0
f 1//1 9//1 10//1 11//1
f 1//2 11//2 12//2 13//2
f 1//3 13//3 14//3 9//3
f 2//4 15//4 16//4 17//4
f 2//5 17//5 12//5 11//5
f 2//6 11//6 10//6 15//6
f 3//7 18//7 19//7 20//7
f 3//8 20//8 12//8 17//8
f 3//9 17//9 16//9 18//9
f 4//10 20//10 19//10 21//10
f 4//11 13//11 12//11 20//11
f 4//12 21//12 14//12 13//12
f 5//13 22//13 23//13 24//13
f 5//14 24//14 25//14 26//14
f 5//15 26//15 27//15 22//15
f 6//16 28//16 23//16 22//16
f 6//17 29//17 30//17 28//17
f 6//18 22//18 27//18 29//18
f 7//19 31//19 23//19 28//19
f 7//20 28//20 30//20 32//20
f 7//21 32//21 33//21 31//21
f 8//22 24//22 23//22 31//22
f 8//23 31//23 33//23 34//23
f 8//24 34//24 25//24 24//24
f 34//25 33//25 35//25 36//25
f 34//26 36//26 37//26 25//26
f 37//27 36//27 38//27 39//27
f 37//28 39//28 40//28 41//28
f 37//29 41//29 26//29 25//29
f 41//30 40//30 42//30 43//30
f 41//31 43//31 27//31 26//31
f 43//32 42//32 44//32 45//32
f 43//33 45//33 29//33 27//33
f 45//34 44//34 46//34 47//34
f 45//35 47//35 30//35 29//35
f 47//36 46//36 48//36 49//36
f 47//37 49//37 32//37 30//37
f 49//38 48//38 50//38 35//38
f 49//39 35//39 33//39 32//39
f 50//40 48//40 51//40 52//40
f 50//41 52//41 53//41 38//41
f 50//42 38//42 36//42 35//42
f 53//43 52//43 54//43 55//43
f 53//44 55//44 56//44 57//44
f 53//45 57//45 39//45 38//45
f 57//46 56//46 58//46 59//46
f 57//47 59//47 40//47 39//47
f 59//48 58//48 60//48 61//48
f 59//49 61//49 42//49 40//49
f 61//50 60//50 62//50 63//50
f 61//51 63//51 44//51 42//51
f 63//52 62//52 64//52 65//52
f 63//53 65//53 46//53 44//53
f 65//54 64//54 66//54 51//54
f 65//55 51//55 48//55 46//55
f 66//56 64//56 67//56 68//56
f 66//57 68//57 69//57 54//57
f 66//58 54//58 52//58 51//58
f 69//59 68//59 70//59 71//59
f 69//60 71//60 72//60 73//60
f 69//61 73//61 55//61 54//61
f 73//62 72//62 74//62 75//62
f 73//63 75//63 56//63 55//63
f 75//64 74//64 76//64 77//64
f 75//65 77//65 58//65 56//65
f 77//66 76//66 78//66 79//66
f 77//67 79//67 60//67 58//67
f 79//68 78//68 80//68 81//68
f 79//69 81//69 62//69 60//69
f 81//70 80//70 82//70 67//70
f 81//71 67//71 64//71 62//71
f 82//72 80//72 83//72 84//72
f 82//73 84//73 85//73 70//73
f 82//74 70//74 68//74 67//74
f 85//75 84//75 19//75 18//75
f 85//76 18//76 16//76 86//76
f 85//77 86//77 71//77 70//77
f 86//78 16//78 15//78 87//78
f 86//79 87//79 72//79 71//79
f 87//80 15//80 10//80 88//80
f 87//81 88//81 74//81 72//81
f 88//82 10//82 9//82 89//82
f 88//83 89//83 76//83 74//83
f 89//84 9//84 14//84 90//84
f 89//85 90//85 78//85 76//85
f 90//86 14//86 21//86 83//86
f 90//87 83//87 80//87 78//87
f 84//88 83//88 21//88 19//88
